<?xml version="1.0" encoding="utf-8"?>
<!-- Generator: Adobe Illustrator 16.0.0, SVG Export Plug-In . SVG Version: 6.00 Build 0)  -->
<!DOCTYPE svg PUBLIC "-//W3C//DTD SVG 1.1//EN" "http://www.w3.org/Graphics/SVG/1.1/DTD/svg11.dtd">
<svg version="1.1" id="Layer_1" xmlns:sketch="http://www.bohemiancoding.com/sketch/ns"
	 xmlns="http://www.w3.org/2000/svg" xmlns:xlink="http://www.w3.org/1999/xlink" x="0px" y="0px" width="55px" height="72px"
	 viewBox="0 0 55 72" enable-background="new 0 0 55 72" xml:space="preserve">
<path id="Shape" fill="none" stroke="#005495" stroke-width="2" d="M41.695,37.4h2.826c4.68,0,8.479,3.766,8.479,8.406
	c0,4.639-3.799,8.404-8.479,8.404h-2.826"/>
<path id="Shape_1_" fill="none" stroke="#005495" stroke-width="2" d="M41.695,62.615c0,3.094-2.532,5.604-5.652,5.604H10.608
	c-3.12,0-5.652-2.51-5.652-5.604V31.796h36.739V62.615L41.695,62.615z M41.359,3.959c2.919,4.41-1.402,6.825-2.41,9.195
	c-1.066,2.507-0.031,4.909,2.5,5.965C49.646,22.543,52.087,6.531,41.359,3.959L41.359,3.959z M33.217,31.796l7.373-13.134
	L33.217,31.796z M43.507,19.626l-4.638,12.17L43.507,19.626z"/>
<path id="Shape_2_" fill="none" stroke="#005495" stroke-width="2" d="M16.261,31.796H7.782l-4.239-8.405L2.13,14.987l7.065,4.202
	L16.261,31.796z M3.543,23.392l5.652-4.203L3.543,23.392z"/>
<path id="Shape_3_" fill="none" stroke="#005495" stroke-width="2" d="M19.087,3.78h11.304v28.017H19.087V3.78z"/>
<path id="Path" fill="none" stroke="#005495" stroke-width="1.5" d="M30.391,25.5h-2.826H30.391z"/>
<path id="Path_1_" fill="none" stroke="#005495" stroke-width="1.5" d="M30.391,20.5h-5.652H30.391z"/>
<path id="Path_2_" fill="none" stroke="#005495" stroke-width="1.5" d="M30.391,14.5h-2.826H30.391z"/>
<path id="Path_3_" fill="none" stroke="#005495" stroke-width="1.5" d="M30.391,8.5h-5.652H30.391z"/>
</svg>
