<?xml version="1.0" encoding="utf-8"?>
<!-- Generator: Adobe Illustrator 16.0.0, SVG Export Plug-In . SVG Version: 6.00 Build 0)  -->
<!DOCTYPE svg PUBLIC "-//W3C//DTD SVG 1.1//EN" "http://www.w3.org/Graphics/SVG/1.1/DTD/svg11.dtd">
<svg version="1.1" id="Layer_1" xmlns="http://www.w3.org/2000/svg" xmlns:xlink="http://www.w3.org/1999/xlink" x="0px" y="0px"
	 width="100px" height="100px" viewBox="0 0 100 100" enable-background="new 0 0 100 100" xml:space="preserve">
<g>
	<circle fill="#FFFFFF" cx="50.036" cy="49.786" r="48.133"/>
	<g>
		<path fill="#02539C" d="M14.659,43.671l-4.995,2.787l3.185,0.395l0.536,0.047c0.251,0.031,0.403-0.158,0.454-0.566l0.427,0.054
			l-0.239,1.937l-0.428-0.054c0.039-0.311,0.008-0.501-0.096-0.571c-0.101-0.067-0.347-0.125-0.738-0.173l-4.025-0.5
			c-0.391-0.048-0.644-0.051-0.76-0.009c-0.116,0.042-0.192,0.219-0.231,0.529l-0.428-0.052l0.162-1.306l4.996-2.786L9.24,42.999
			l-0.542-0.044c-0.249-0.03-0.399,0.157-0.449,0.562l-0.428-0.053l0.24-1.936l0.428,0.051c-0.05,0.408,0.049,0.627,0.298,0.657
			l0.536,0.09l5.419,0.674L14.659,43.671z"/>
		<path fill="#02539C" d="M14.848,42.099l-0.415-0.122l0.026-0.154c0.017-0.136-0.095-0.29-0.337-0.467l-0.363-0.265l-4.862-3.269
			l0.121-0.408l5.883-0.169l0.54-0.04c0.275-0.018,0.443-0.13,0.504-0.337l0.414,0.124l-0.675,2.28l-0.414-0.122
			c0.092-0.313,0.075-0.485-0.052-0.524c-0.086-0.026-0.329-0.031-0.726-0.019l-0.591,0.021l-0.505,1.705l0.491,0.331
			c0.327,0.222,0.534,0.344,0.619,0.369c0.125,0.039,0.227-0.07,0.302-0.323l0.413,0.123L14.848,42.099z M13.023,40.078l0.425-1.437
			l-2.432,0.081L13.023,40.078z"/>
		<path fill="#02539C" d="M16.807,36.064l-0.393-0.18c0.171-0.372,0.14-0.611-0.091-0.715l-0.48-0.245l-4.426-2.018l-0.286,0.625
			c-0.11,0.242-0.131,0.398-0.064,0.465c0.068,0.067,0.233,0.16,0.493,0.284l0.101,0.046l-0.179,0.391l-1.232-0.561l1.905-4.182
			l1.232,0.562l-0.178,0.394l-0.102-0.047c-0.262-0.118-0.44-0.183-0.536-0.188c-0.097-0.007-0.199,0.113-0.31,0.356l-0.286,0.627
			l4.426,2.017l0.499,0.205c0.23,0.105,0.431-0.029,0.602-0.404l0.392,0.179L16.807,36.064z"/>
		<path fill="#02539C" d="M18.497,32.529l-0.37-0.222c0.209-0.354,0.206-0.596-0.011-0.724l-0.453-0.294l-3.483-2.075l-0.477-0.26
			c-0.216-0.129-0.429-0.016-0.639,0.337l-0.371-0.221l1.342-2.256l0.372,0.222c-0.211,0.353-0.208,0.594,0.007,0.723l0.457,0.296
			l3.485,2.076l0.471,0.257c0.219,0.13,0.433,0.019,0.644-0.335l0.372,0.221L18.497,32.529z"/>
		<path fill="#02539C" d="M21.705,27.957c-0.438,0.566-1.037,0.82-1.798,0.762c-0.762-0.059-1.572-0.418-2.431-1.082
			c-0.864-0.666-1.418-1.362-1.661-2.083c-0.244-0.721-0.142-1.371,0.306-1.95c0.448-0.578,1.049-0.843,1.809-0.791
			c0.759,0.051,1.568,0.409,2.426,1.071c0.882,0.683,1.444,1.385,1.681,2.104C22.273,26.708,22.163,27.364,21.705,27.957z
			 M21.371,27.64c0.363-0.469-0.285-1.345-1.943-2.626c-1.593-1.23-2.576-1.605-2.945-1.127c-0.367,0.474,0.261,1.341,1.883,2.593
			C19.995,27.737,20.997,28.125,21.371,27.64z"/>
		<path fill="#02539C" d="M26.858,22.356l-5.62-1.078l2.187,2.352l0.38,0.379c0.173,0.186,0.41,0.139,0.712-0.142l0.293,0.317
			l-1.429,1.328l-0.294-0.315c0.229-0.213,0.328-0.378,0.293-0.498c-0.035-0.119-0.185-0.321-0.453-0.609l-2.762-2.971
			c-0.268-0.288-0.46-0.453-0.576-0.495c-0.116-0.042-0.288,0.043-0.518,0.257l-0.294-0.317l0.963-0.895l5.618,1.077l-2.223-2.39
			l-0.387-0.38c-0.17-0.186-0.406-0.137-0.705,0.141l-0.295-0.316l1.43-1.328l0.295,0.314c-0.3,0.28-0.364,0.511-0.193,0.694
			l0.351,0.414l3.72,4L26.858,22.356z"/>
		<path fill="#02539C" d="M28.007,21.277l-0.238-0.359l0.118-0.103c0.1-0.092,0.114-0.282,0.042-0.572l-0.109-0.438l-1.628-5.626
			l0.356-0.236l4.618,3.647l0.439,0.317c0.221,0.163,0.423,0.185,0.603,0.065l0.239,0.359l-1.983,1.314l-0.238-0.359
			c0.271-0.18,0.371-0.325,0.297-0.434c-0.05-0.076-0.232-0.236-0.545-0.482l-0.465-0.363l-1.482,0.981l0.163,0.57
			c0.109,0.378,0.188,0.605,0.238,0.68c0.073,0.11,0.22,0.094,0.439-0.053l0.239,0.36L28.007,21.277z M27.907,18.556l1.249-0.828
			l-1.915-1.499L27.907,18.556z"/>
		<path fill="#02539C" d="M36.849,16.265l-4.16,1.963l-0.185-0.391c0.373-0.175,0.505-0.377,0.397-0.607l-0.212-0.496l-1.73-3.669
			l-0.25-0.482c-0.107-0.227-0.347-0.252-0.718-0.077l-0.185-0.39l2.374-1.12l0.184,0.392c-0.373,0.175-0.504,0.376-0.397,0.604
			l0.213,0.499l1.73,3.668c0.141,0.299,0.256,0.486,0.343,0.559c0.089,0.074,0.326,0.02,0.708-0.161l0.518-0.243l0.253-0.133
			c0.255-0.121,0.33-0.292,0.225-0.518l-0.109-0.239l-0.065-0.147l0.491-0.231L36.849,16.265z"/>
		<path fill="#02539C" d="M39.645,15.264l-0.094-0.422l0.147-0.054c0.127-0.05,0.209-0.223,0.244-0.52l0.056-0.447l0.494-5.837
			l0.417-0.092l3.006,5.059l0.296,0.453c0.148,0.232,0.329,0.323,0.541,0.277l0.094,0.421l-2.323,0.519L42.428,14.2
			c0.318-0.07,0.462-0.169,0.433-0.299c-0.02-0.088-0.131-0.303-0.336-0.644l-0.305-0.507l-1.735,0.386l-0.051,0.591
			c-0.035,0.393-0.042,0.633-0.023,0.719c0.029,0.13,0.173,0.167,0.43,0.108l0.093,0.421L39.645,15.264z M40.525,12.686l1.462-0.325
			l-1.252-2.084L40.525,12.686z"/>
		<path fill="#02539C" d="M45.226,14.009l-0.11-1.369l0.485-0.039c0.064,0.792,0.484,1.157,1.262,1.094
			c0.659-0.055,0.958-0.472,0.894-1.252c-0.038-0.46-0.34-0.839-0.907-1.138l-0.411-0.218c-1.001-0.529-1.536-1.198-1.601-2.003
			c-0.046-0.57,0.093-1.041,0.417-1.412c0.324-0.371,0.778-0.582,1.363-0.627c0.458-0.039,0.992,0.02,1.6,0.172l0.098,1.212
			l-0.486,0.038c-0.058-0.719-0.395-1.055-1.012-1.006c-0.608,0.05-0.885,0.421-0.83,1.114c0.034,0.401,0.33,0.756,0.889,1.067
			l0.417,0.229c1.028,0.562,1.574,1.243,1.64,2.04c0.049,0.621-0.109,1.132-0.475,1.534c-0.365,0.4-0.88,0.628-1.547,0.681
			C46.424,14.163,45.862,14.126,45.226,14.009z"/>
		<path fill="#02539C" d="M49.766,13.689l0.063-1.372l0.488,0.021c-0.037,0.794,0.334,1.209,1.113,1.246
			c0.661,0.028,1.01-0.348,1.044-1.132c0.021-0.46-0.232-0.874-0.757-1.243l-0.381-0.266c-0.926-0.65-1.373-1.38-1.336-2.19
			c0.026-0.571,0.223-1.021,0.59-1.349c0.367-0.327,0.845-0.478,1.431-0.452c0.459,0.021,0.981,0.145,1.567,0.373l-0.057,1.213
			l-0.484-0.021c0.032-0.722-0.263-1.098-0.879-1.125c-0.609-0.029-0.931,0.305-0.963,1c-0.018,0.402,0.23,0.792,0.749,1.169
			l0.384,0.28c0.949,0.688,1.404,1.431,1.37,2.229c-0.028,0.623-0.249,1.109-0.661,1.462c-0.415,0.351-0.952,0.512-1.62,0.482
			C50.938,13.992,50.385,13.884,49.766,13.689z"/>
		<path fill="#02539C" d="M56.569,14.581c-0.705-0.129-1.204-0.546-1.501-1.25c-0.298-0.703-0.347-1.588-0.152-2.654
			c0.198-1.075,0.563-1.886,1.092-2.433c0.531-0.546,1.155-0.753,1.873-0.621c0.72,0.132,1.23,0.547,1.532,1.245
			c0.302,0.699,0.354,1.581,0.158,2.647c-0.201,1.1-0.567,1.918-1.101,2.458C57.94,14.515,57.307,14.717,56.569,14.581z
			 M56.699,14.139c0.584,0.107,1.063-0.87,1.443-2.931c0.364-1.98,0.249-3.024-0.344-3.134c-0.593-0.109-1.072,0.845-1.444,2.861
			C55.982,12.959,56.097,14.027,56.699,14.139z"/>
		<path fill="#02539C" d="M65.395,11.42l0.09-0.282c0.184-0.53-0.075-0.916-0.774-1.156c-1.065-0.367-1.936,0.414-2.602,2.348
			c-0.649,1.882-0.38,3.026,0.807,3.436c0.485,0.167,0.99,0.198,1.52,0.093l-0.183,0.54c-0.584,0.066-1.192-0.011-1.824-0.227
			c-0.902-0.313-1.505-0.85-1.808-1.617c-0.303-0.768-0.272-1.675,0.09-2.727c0.366-1.062,0.897-1.797,1.595-2.21
			C63,9.203,63.8,9.152,64.696,9.463c0.543,0.187,1.088,0.479,1.645,0.88l-0.434,1.253L65.395,11.42z"/>
		<path fill="#02539C" d="M64.657,16.878l0.191-0.388c0.368,0.18,0.607,0.155,0.72-0.072l0.253-0.475l1.778-3.646l0.218-0.497
			c0.11-0.226-0.019-0.428-0.39-0.609l0.189-0.388l2.36,1.149l-0.189,0.388c-0.371-0.18-0.611-0.158-0.72,0.068l-0.256,0.479
			l-1.776,3.646l-0.22,0.493c-0.11,0.228,0.021,0.432,0.389,0.612l-0.189,0.388L64.657,16.878z"/>
		<path fill="#02539C" d="M67.371,18.134l0.234-0.362l0.142,0.068c0.124,0.055,0.306-0.009,0.543-0.192l0.356-0.272l4.509-3.739
			l0.358,0.233l-1.501,5.69l-0.116,0.529c-0.06,0.267,0,0.461,0.183,0.578l-0.236,0.362l-1.997-1.292l0.235-0.363
			c0.272,0.177,0.445,0.209,0.518,0.1c0.049-0.076,0.122-0.308,0.222-0.691l0.148-0.573l-1.492-0.966l-0.457,0.377
			c-0.302,0.251-0.48,0.414-0.53,0.488c-0.069,0.112,0.006,0.237,0.227,0.38l-0.234,0.363L67.371,18.134z M69.826,16.956
			l1.259,0.813l0.608-2.353L69.826,16.956z"/>
		<path fill="#02539C" d="M72.599,21.715l0.281-0.326c0.312,0.267,0.548,0.305,0.714,0.112l0.37-0.39l3.184-3.679l-0.521-0.451
			c-0.201-0.175-0.344-0.238-0.427-0.192c-0.084,0.048-0.221,0.179-0.413,0.394l-0.072,0.083l-0.324-0.281l0.885-1.024l3.475,3.006
			l-0.884,1.024l-0.327-0.282l0.071-0.084c0.189-0.217,0.298-0.373,0.332-0.462c0.031-0.089-0.052-0.224-0.254-0.397l-0.52-0.449
			l-3.185,3.678l-0.336,0.421c-0.165,0.192-0.092,0.421,0.219,0.691l-0.283,0.325L72.599,21.715z"/>
		<path fill="#02539C" d="M75.523,24.339l0.316-0.295c0.28,0.302,0.512,0.367,0.698,0.193l0.408-0.352l2.971-2.761l0.384-0.385
			c0.186-0.17,0.135-0.405-0.145-0.708l0.314-0.292l1.786,1.922l-0.314,0.292c-0.28-0.3-0.512-0.365-0.694-0.195l-0.413,0.356
			l-2.97,2.76l-0.381,0.381c-0.185,0.172-0.139,0.408,0.142,0.71L77.31,26.26L75.523,24.339z"/>
		<path fill="#02539C" d="M79.009,28.696c-0.421-0.578-0.497-1.224-0.229-1.94c0.268-0.715,0.842-1.392,1.718-2.03
			c0.882-0.644,1.705-0.982,2.466-1.013c0.76-0.033,1.356,0.249,1.786,0.839c0.43,0.591,0.515,1.244,0.253,1.959
			c-0.261,0.714-0.83,1.39-1.707,2.029c-0.901,0.657-1.732,0.999-2.489,1.025C80.049,29.59,79.45,29.301,79.009,28.696z
			 M79.407,28.464c0.35,0.479,1.37,0.104,3.062-1.131c1.628-1.185,2.266-2.023,1.909-2.511c-0.354-0.485-1.36-0.127-3.018,1.082
			C79.697,27.116,79.046,27.968,79.407,28.464z"/>
		<path fill="#02539C" d="M82.946,35.21l2.605-5.094l-2.867,1.442l-0.474,0.258c-0.225,0.114-0.246,0.355-0.061,0.724l-0.387,0.192
			l-0.876-1.743l0.386-0.193c0.141,0.278,0.273,0.418,0.395,0.42c0.124,0.001,0.36-0.087,0.713-0.265l3.625-1.821
			c0.352-0.176,0.562-0.315,0.636-0.412c0.072-0.1,0.038-0.29-0.102-0.569l0.385-0.194l0.59,1.176l-2.605,5.091l2.916-1.465
			l0.476-0.265c0.223-0.112,0.245-0.351,0.061-0.718l0.386-0.193l0.876,1.745l-0.386,0.192c-0.184-0.365-0.388-0.491-0.611-0.378
			l-0.496,0.221l-4.879,2.453L82.946,35.21z"/>
		<path fill="#02539C" d="M84.984,41.779c-0.158-0.699,0.027-1.321,0.556-1.873c0.53-0.552,1.321-0.947,2.379-1.189
			c1.066-0.242,1.953-0.229,2.666,0.042c0.71,0.271,1.148,0.763,1.31,1.474c0.163,0.714-0.016,1.346-0.538,1.9
			c-0.522,0.554-1.312,0.951-2.367,1.193c-1.091,0.249-1.988,0.235-2.695-0.039C85.588,43.012,85.151,42.51,84.984,41.779z
			 M85.443,41.723c0.131,0.578,1.219,0.635,3.261,0.168c1.965-0.448,2.879-0.966,2.743-1.555c-0.133-0.587-1.199-0.653-3.2-0.196
			C86.242,40.599,85.306,41.126,85.443,41.723z"/>
		<path fill="#02539C" d="M85.744,44.628l0.43-0.035c0.035,0.41,0.18,0.604,0.433,0.582l0.537-0.025l4.043-0.337l0.539-0.065
			c0.249-0.021,0.356-0.237,0.32-0.647l0.432-0.036l0.356,4.243l-1.184,0.099l-0.038-0.429l0.112-0.01l0.298-0.028
			c0.229-0.02,0.327-0.224,0.295-0.613l-0.104-1.246l-2.804,0.235l0.062,0.74l0.042,0.339c0.015,0.16,0.125,0.232,0.329,0.214
			l0.151-0.012l0.034,0.43l-1.343,0.112l-0.036-0.43l0.165-0.013c0.19-0.017,0.28-0.106,0.267-0.267l-0.013-0.34l-0.062-0.74
			l-1.75,0.146l-0.535,0.064c-0.253,0.022-0.361,0.238-0.329,0.647l-0.43,0.036L85.744,44.628z"/>
	</g>
	<g>
		<path fill="#91A0C5" d="M81.342,49.787h-1.051c0,8.357-3.385,15.914-8.861,21.392c-5.479,5.479-13.037,8.863-21.395,8.863
			c-8.357,0-15.914-3.385-21.393-8.863c-5.476-5.478-8.861-13.034-8.861-21.392c0-8.359,3.386-15.917,8.861-21.394
			c5.479-5.478,13.036-8.861,21.393-8.862c8.357,0.001,15.915,3.385,21.395,8.862c5.477,5.478,8.861,13.035,8.861,21.394H81.342
			h1.051c0-17.872-14.485-32.358-32.357-32.358c-17.871,0-32.356,14.486-32.356,32.358c0,17.871,14.486,32.355,32.356,32.355
			c17.872,0,32.357-14.484,32.357-32.355H81.342z"/>
		<path fill="#91A0C5" d="M97.948,49.787h-1.051c0,12.943-5.243,24.65-13.725,33.135c-8.485,8.481-20.192,13.727-33.138,13.727
			c-12.942,0-24.651-5.245-33.135-13.727C8.419,74.438,3.176,62.73,3.175,49.787c0-12.943,5.244-24.653,13.725-33.137
			C25.384,8.169,37.093,2.925,50.035,2.925c12.945,0,24.652,5.244,33.138,13.725c8.481,8.484,13.725,20.191,13.725,33.137H97.948H99
			C99,22.744,77.078,0.822,50.035,0.822c-27.042,0-48.962,21.921-48.963,48.965c0,27.042,21.921,48.963,48.963,48.963
			C77.078,98.75,99,76.829,99,49.787H97.948z"/>
	</g>
	<g>
		<path fill-rule="evenodd" clip-rule="evenodd" fill="#40485B" d="M68.511,38.183c-0.021-0.162-0.037-0.316-0.059-0.481
			C68.452,37.702,68.469,37.877,68.511,38.183z"/>
		<path fill-rule="evenodd" clip-rule="evenodd" fill="#40485B" d="M68.511,38.183c0.798,6.549,0.393,10.288-0.902,13.017
			c-1.788,3.765-10.876,8.735-10.876,8.735c12.135-5.417,13.923-2.064,13.923-2.064c4.503,3.341,6.614,18,6.614,18
			c0.243-12.791-2.199-17.812-0.961-20.942c1.237-3.133,10.404-7.91,10.404-7.91C71.633,54.953,68.9,40.994,68.511,38.183z"/>
		
			<ellipse transform="matrix(0.7105 0.7037 -0.7037 0.7105 53.9641 -40.4396)" fill-rule="evenodd" clip-rule="evenodd" fill="#40485B" cx="76.135" cy="45.371" rx="2.023" ry="2.758"/>
	</g>
	<g>
		<path fill-rule="evenodd" clip-rule="evenodd" fill="#91A0C5" d="M37.775,25.306c-0.102-0.136-0.196-0.264-0.3-0.4
			C37.475,24.906,37.579,25.054,37.775,25.306z"/>
		<path fill-rule="evenodd" clip-rule="evenodd" fill="#91A0C5" d="M58.391,24.271c-9.089,14.537-18.802,3.358-20.616,1.036
			c4.133,5.48,5.737,9.027,6.028,12.112c0.403,4.254-4.973,13.182-4.973,13.182c7.817-10.825,11.144-8.7,11.144-8.7
			c4.395,0.556,14.483,12.525,14.483,12.525C57.97,42.84,53.953,39.894,53.398,36.479C52.844,33.064,58.391,24.271,58.391,24.271z"
			/>
		<ellipse fill-rule="evenodd" clip-rule="evenodd" fill="#91A0C5" cx="49.059" cy="27.72" rx="2.011" ry="2.662"/>
	</g>
	<path fill-rule="evenodd" clip-rule="evenodd" fill="#005494" d="M34.844,51.678c-1.917-3.012-1.655-14.055-1.655-14.055
		c-0.388,4.073-1.518,6.887-3.031,8.808c-0.018-0.143-0.036-0.286-0.072-0.43c-0.381-1.574-1.627-2.62-2.779-2.339
		c-1.154,0.281-1.779,1.783-1.396,3.355c0.208,0.854,0.674,1.544,1.237,1.959c-5.211,2.792-11.82,0.128-11.82,0.128
		c6.56,2.939,9.762,5.343,11.533,7.978c2.386,3.547,1.92,13.957,1.92,13.957c1.705-13.245,5.643-12.965,5.643-12.965
		c4.125-1.608,19.019,3.443,19.019,3.443C42.699,54.363,36.877,54.868,34.844,51.678z"/>
	<g>
		<path fill="#02539C" d="M7.448,54.775l0.415-0.08c0.075,0.395,0.234,0.569,0.479,0.522l0.521-0.072l3.909-0.741l0.518-0.119
			c0.242-0.046,0.325-0.267,0.251-0.659l0.415-0.081l0.362,1.915l-2.734,0.517l0.247,1.309l1.433-0.271l0.52-0.117
			c0.241-0.049,0.325-0.266,0.25-0.66l0.417-0.08l0.476,2.525l-0.416,0.078c-0.076-0.396-0.233-0.572-0.475-0.525l-0.526,0.079
			l-3.907,0.738l-0.517,0.115c-0.243,0.048-0.328,0.269-0.254,0.666l-0.415,0.078l-0.361-1.913l3.252-0.615l-0.247-1.308
			L9.11,56.445l-0.516,0.116c-0.244,0.045-0.328,0.267-0.254,0.659l-0.415,0.078L7.448,54.775z"/>
		<path fill="#02539C" d="M8.759,61.087l0.401-0.138c0.129,0.382,0.312,0.533,0.547,0.454l0.505-0.15l3.767-1.277l0.498-0.188
			c0.233-0.081,0.285-0.312,0.155-0.692l0.4-0.137l1.342,3.955l-1.103,0.373l-0.136-0.401l0.104-0.034l0.276-0.103
			c0.213-0.071,0.258-0.289,0.136-0.648l-0.394-1.16l-2.36,0.798l0.231,0.682l0.119,0.317c0.052,0.152,0.171,0.198,0.354,0.136
			l0.151-0.049l0.136,0.399l-1.253,0.425L12.5,63.249l0.154-0.054c0.181-0.061,0.247-0.17,0.193-0.325l-0.096-0.319l-0.231-0.684
			l-1.883,0.637c-0.342,0.118-0.563,0.216-0.663,0.293c-0.1,0.077-0.082,0.314,0.053,0.713l0.105,0.311l0.175,0.464
			c0.048,0.144,0.114,0.216,0.195,0.214c0.082,0,0.254-0.043,0.515-0.134l0.125-0.043l0.154,0.451l-1.156,0.393L8.759,61.087z"/>
		<path fill="#02539C" d="M10.522,66.155l0.378-0.189l0.085,0.128c0.077,0.108,0.261,0.144,0.554,0.108l0.438-0.053l5.669-0.912
			l0.188,0.374l-4.103,4.06l-0.361,0.389c-0.185,0.197-0.23,0.389-0.135,0.579l-0.378,0.189l-1.043-2.087l0.379-0.188
			c0.142,0.283,0.271,0.399,0.387,0.341c0.079-0.04,0.256-0.197,0.533-0.474l0.409-0.409l-0.778-1.559l-0.574,0.09
			c-0.382,0.062-0.611,0.112-0.69,0.151c-0.116,0.058-0.117,0.202,0,0.434l-0.379,0.188L10.522,66.155z M13.183,66.383l0.657,1.313
			l1.688-1.682L13.183,66.383z"/>
		<path fill="#02539C" d="M15.959,75.434l-2.55-3.718l0.349-0.241c0.228,0.333,0.445,0.43,0.65,0.288l0.446-0.283l3.279-2.248
			l0.428-0.317c0.203-0.139,0.19-0.376-0.038-0.708l0.349-0.239l1.455,2.121l-0.349,0.241c-0.229-0.332-0.443-0.429-0.646-0.291
			l-0.45,0.285l-3.279,2.248c-0.267,0.184-0.429,0.325-0.487,0.421c-0.057,0.099,0.032,0.317,0.267,0.657l0.316,0.465l0.167,0.224
			c0.157,0.228,0.336,0.275,0.537,0.138l0.214-0.143l0.134-0.086l0.3,0.437L15.959,75.434z"/>
		<path fill="#02539C" d="M17.225,76.945l0.317-0.28c0.267,0.3,0.493,0.364,0.679,0.199l0.408-0.333l3.558-3.179l-0.45-0.504
			c-0.174-0.195-0.305-0.275-0.392-0.238c-0.087,0.033-0.237,0.143-0.45,0.329l-0.081,0.072l-0.282-0.315l0.99-0.883l3.001,3.36
			l-0.99,0.882l-0.281-0.315l0.082-0.071c0.21-0.188,0.336-0.323,0.379-0.408c0.043-0.083-0.022-0.225-0.198-0.417l-0.448-0.504
			l-3.557,3.178l-0.38,0.365c-0.185,0.166-0.144,0.399,0.125,0.7l-0.315,0.282L17.225,76.945z"/>
		<path fill="#02539C" d="M20.29,80.311l0.274-0.325c0.306,0.262,0.539,0.298,0.7,0.109l0.36-0.388l2.578-3.027l0.328-0.42
			c0.159-0.188,0.087-0.411-0.219-0.671l0.275-0.322l1.483,1.265l-1.805,2.117l1.014,0.864l0.945-1.109l0.33-0.419
			c0.161-0.187,0.087-0.409-0.218-0.67l0.273-0.321l1.957,1.663l-0.274,0.322c-0.309-0.261-0.541-0.298-0.7-0.111l-0.361,0.392
			l-2.579,3.029l-0.328,0.415c-0.161,0.188-0.088,0.414,0.219,0.674l-0.274,0.324l-1.482-1.265l2.147-2.52l-1.013-0.863l-1.29,1.514
			l-0.328,0.413c-0.16,0.188-0.088,0.414,0.217,0.675l-0.275,0.321L20.29,80.311z"/>
		<path fill="#02539C" d="M31.693,82.316l0.147-0.252c0.292-0.464,0.131-0.889-0.483-1.273c-0.938-0.588-1.941-0.032-3.005,1.665
			c-1.037,1.654-1.033,2.806,0.011,3.461c0.426,0.268,0.903,0.409,1.432,0.428L29.5,86.816c-0.573-0.065-1.138-0.271-1.691-0.619
			c-0.794-0.497-1.251-1.148-1.37-1.945c-0.119-0.797,0.111-1.66,0.691-2.585c0.583-0.933,1.254-1.517,2.01-1.756
			c0.757-0.241,1.53-0.115,2.319,0.38c0.476,0.298,0.935,0.7,1.375,1.203l-0.691,1.104L31.693,82.316z"/>
		<path fill="#02539C" d="M30.327,87.515l0.171-0.388l0.146,0.045c0.128,0.033,0.294-0.055,0.497-0.27l0.302-0.318l3.794-4.314
			l0.382,0.171l-0.58,5.74l-0.03,0.532c-0.019,0.269,0.069,0.448,0.265,0.534l-0.172,0.385l-2.132-0.946l0.171-0.386
			c0.291,0.128,0.462,0.136,0.516,0.015c0.035-0.079,0.072-0.315,0.11-0.701l0.056-0.578l-1.594-0.707l-0.384,0.436
			c-0.257,0.289-0.403,0.474-0.438,0.554c-0.052,0.12,0.04,0.23,0.276,0.335l-0.172,0.388L30.327,87.515z M32.524,85.995
			l1.342,0.598l0.23-2.374L32.524,85.995z"/>
		<path fill="#02539C" d="M36.082,89.978l0.114-0.409c0.388,0.109,0.615,0.046,0.684-0.194l0.16-0.505l1.071-3.83l0.126-0.516
			c0.064-0.239-0.097-0.411-0.486-0.52l0.114-0.407l1.879,0.525l0.251,0.065l0.341,0.081l0.357,0.089
			c1.16,0.325,1.595,1.005,1.306,2.039c-0.234,0.837-0.75,1.313-1.547,1.429l0.327,2.184c0.078,0.521,0.227,0.849,0.444,0.98
			l-0.11,0.393l-1.451-0.405l-0.483-3.269l-0.408-0.113l-0.457,1.632l-0.123,0.514c-0.038,0.134-0.042,0.229-0.014,0.279
			c0.031,0.055,0.165,0.125,0.402,0.215l-0.114,0.409L36.082,89.978z M39.627,84.528l-0.742,2.658l0.202,0.057
			c0.804,0.224,1.341-0.149,1.612-1.114c0.224-0.806-0.019-1.306-0.731-1.506L39.627,84.528z"/>
		<path fill="#02539C" d="M42.148,91.557l0.057-0.419c0.4,0.054,0.616-0.04,0.65-0.288l0.089-0.522l0.534-3.939l0.051-0.528
			c0.032-0.244-0.15-0.395-0.55-0.448l0.056-0.418l4.139,0.559l-0.156,1.154l-0.42-0.058l0.016-0.105l0.031-0.295
			c0.03-0.223-0.144-0.359-0.521-0.413l-1.215-0.162l-0.333,2.471l0.712,0.094l0.334,0.035c0.163,0.021,0.255-0.064,0.282-0.259
			l0.021-0.158l0.419,0.06l-0.177,1.312L45.75,89.17l0.022-0.161c0.025-0.191-0.043-0.294-0.205-0.318l-0.33-0.056l-0.713-0.098
			l-0.267,1.969c-0.049,0.359-0.06,0.602-0.035,0.725s0.246,0.215,0.663,0.269l0.323,0.045l0.496,0.052
			c0.147,0.021,0.241-0.008,0.277-0.08c0.036-0.073,0.072-0.248,0.109-0.521l0.018-0.134l0.474,0.066l-0.164,1.207L42.148,91.557z"
			/>
		<path fill="#02539C" d="M51.847,92.218l-0.031-0.423c0.401-0.028,0.592-0.164,0.573-0.413l-0.013-0.528l-0.334-4.758l-0.673,0.047
			c-0.262,0.019-0.403,0.072-0.43,0.16c-0.027,0.094-0.033,0.278-0.016,0.562l0.01,0.108l-0.422,0.029l-0.094-1.325l4.494-0.314
			l0.093,1.325l-0.422,0.027l-0.007-0.108c-0.021-0.28-0.049-0.464-0.09-0.55c-0.038-0.086-0.189-0.118-0.451-0.101l-0.672,0.048
			l0.334,4.757l0.055,0.526c0.021,0.249,0.228,0.355,0.631,0.329l0.03,0.422L51.847,92.218z"/>
		<path fill="#02539C" d="M56.369,91.832l-0.084-0.414c0.396-0.078,0.57-0.238,0.522-0.482l-0.085-0.523l-0.773-3.899l-0.124-0.52
			c-0.046-0.241-0.268-0.32-0.666-0.243l-0.081-0.416l4.097-0.812l0.226,1.143l-0.413,0.081l-0.022-0.105L58.9,85.35
			c-0.044-0.22-0.253-0.29-0.628-0.217l-1.2,0.236l0.484,2.446l0.707-0.142l0.327-0.076c0.159-0.031,0.219-0.142,0.183-0.333
			l-0.031-0.157l0.415-0.083l0.257,1.3l-0.413,0.084l-0.033-0.163c-0.037-0.186-0.135-0.263-0.295-0.233l-0.331,0.054l-0.707,0.143
			l0.387,1.948c0.072,0.354,0.139,0.585,0.202,0.695c0.062,0.107,0.303,0.12,0.713,0.041l0.32-0.064l0.486-0.111
			c0.146-0.032,0.227-0.086,0.235-0.166c0.011-0.081-0.012-0.26-0.064-0.531l-0.026-0.128l0.47-0.094l0.236,1.196L56.369,91.832z"/>
		<path fill="#02539C" d="M64.185,84.371l-0.104-0.272c-0.179-0.518-0.61-0.66-1.295-0.424c-1.047,0.361-1.243,1.491-0.588,3.385
			c0.638,1.846,1.538,2.566,2.701,2.163c0.474-0.164,0.884-0.445,1.23-0.847l0.183,0.527c-0.41,0.406-0.926,0.715-1.544,0.927
			c-0.885,0.306-1.678,0.256-2.372-0.154c-0.698-0.408-1.224-1.127-1.58-2.159c-0.357-1.04-0.395-1.928-0.107-2.669
			c0.288-0.741,0.872-1.261,1.752-1.564c0.531-0.186,1.132-0.288,1.801-0.315l0.425,1.229L64.185,84.371z"/>
		<path fill="#02539C" d="M67.524,88.629l-0.195-0.374c0.355-0.185,0.477-0.389,0.362-0.61l-0.226-0.479l-1.833-3.531l-0.267-0.46
			c-0.112-0.218-0.348-0.234-0.703-0.05l-0.194-0.375l1.728-0.898l1.283,2.47l1.182-0.614l-0.673-1.293l-0.263-0.465
			c-0.113-0.217-0.348-0.235-0.704-0.048l-0.196-0.377l2.28-1.185l0.197,0.375c-0.36,0.185-0.482,0.39-0.369,0.605l0.229,0.482
			l1.836,3.527l0.261,0.46c0.113,0.22,0.35,0.239,0.708,0.05l0.195,0.375l-1.729,0.9l-1.527-2.937l-1.182,0.615l0.919,1.762
			l0.26,0.459c0.113,0.221,0.349,0.238,0.705,0.053l0.195,0.376L67.524,88.629z"/>
		<path fill="#02539C" d="M76.946,82.895l-5.356-1.663l1.872,2.532l0.329,0.408c0.148,0.199,0.385,0.181,0.708-0.062l0.251,0.34
			l-1.538,1.143l-0.251-0.343c0.247-0.183,0.36-0.334,0.342-0.452c-0.021-0.119-0.146-0.335-0.374-0.643l-2.366-3.197
			c-0.229-0.31-0.398-0.489-0.507-0.546c-0.106-0.054-0.286,0.012-0.532,0.191l-0.252-0.337l1.036-0.768l5.356,1.665l-1.905-2.572
			l-0.336-0.413c-0.146-0.199-0.38-0.178-0.703,0.06l-0.251-0.34l1.538-1.138l0.252,0.338c-0.323,0.241-0.411,0.459-0.264,0.657
			l0.298,0.44L77.48,82.5L76.946,82.895z"/>
		<path fill="#02539C" d="M78.88,81.158l-0.292-0.304c0.289-0.279,0.35-0.511,0.176-0.689l-0.35-0.393l-2.758-2.867l-0.382-0.37
			c-0.171-0.177-0.401-0.126-0.692,0.152l-0.292-0.306l1.854-1.78l0.292,0.304c-0.288,0.278-0.349,0.507-0.181,0.686l0.355,0.396
			l2.755,2.867l0.383,0.367c0.172,0.179,0.402,0.128,0.693-0.151l0.292,0.305L78.88,81.158z"/>
		<path fill="#02539C" d="M80.417,71.813l-0.229-0.179c-0.424-0.347-0.867-0.244-1.325,0.318c-0.705,0.854-0.282,1.918,1.267,3.193
			c1.506,1.239,2.65,1.383,3.434,0.432c0.317-0.388,0.52-0.843,0.606-1.367l0.431,0.356c-0.139,0.56-0.417,1.094-0.834,1.599
			c-0.593,0.722-1.296,1.092-2.101,1.108c-0.807,0.017-1.633-0.324-2.476-1.017c-0.851-0.7-1.344-1.439-1.486-2.219
			c-0.14-0.784,0.084-1.534,0.677-2.253c0.354-0.432,0.814-0.837,1.371-1.207l1.003,0.825L80.417,71.813z"/>
		<path fill="#02539C" d="M85.492,73.596l-0.357-0.229c0.22-0.342,0.225-0.576,0.016-0.712l-0.435-0.302l-3.346-2.151l-0.457-0.271
			c-0.206-0.133-0.418-0.031-0.637,0.31l-0.356-0.23l1.393-2.163l0.354,0.229c-0.217,0.338-0.224,0.575-0.017,0.708l0.438,0.304
			l3.346,2.152l0.453,0.271c0.209,0.134,0.422,0.028,0.642-0.31l0.356,0.229L85.492,73.596z"/>
		<path fill="#02539C" d="M87.514,70.471l-0.38-0.186l0.049-0.143c0.039-0.13-0.045-0.297-0.252-0.507l-0.307-0.315l-4.171-3.948
			l0.184-0.375l5.718,0.789l0.527,0.052c0.269,0.027,0.45-0.056,0.541-0.247l0.38,0.186l-1.022,2.096l-0.379-0.185
			c0.139-0.285,0.15-0.458,0.035-0.515c-0.079-0.038-0.313-0.085-0.699-0.137l-0.576-0.075l-0.765,1.565l0.422,0.399
			c0.28,0.268,0.46,0.419,0.54,0.458c0.116,0.058,0.229-0.031,0.343-0.263l0.382,0.187L87.514,70.471z M86.076,68.223l0.645-1.323
			l-2.363-0.314L86.076,68.223z"/>
		<path fill="#02539C" d="M91.621,60.434l-5.302,1.831l3.009,0.929l0.511,0.137c0.236,0.074,0.415-0.081,0.534-0.469l0.403,0.125
			l-0.564,1.828l-0.402-0.123c0.088-0.296,0.092-0.482,0.005-0.567c-0.087-0.086-0.313-0.183-0.684-0.296l-3.8-1.174
			c-0.368-0.114-0.612-0.158-0.73-0.137c-0.12,0.019-0.225,0.175-0.314,0.471l-0.404-0.127l0.381-1.23l5.3-1.835l-3.06-0.943
			l-0.514-0.134c-0.235-0.071-0.412,0.084-0.53,0.467l-0.404-0.124l0.564-1.83l0.404,0.125c-0.119,0.383-0.062,0.612,0.175,0.683
			L86.7,58.22l5.116,1.578L91.621,60.434z"/>
		<path fill="#02539C" d="M92.092,57.845l-1.329-0.208l0.072-0.47c0.77,0.118,1.213-0.201,1.331-0.957
			c0.099-0.64-0.229-1.02-0.99-1.138c-0.445-0.066-0.878,0.133-1.293,0.609l-0.3,0.341c-0.733,0.833-1.491,1.188-2.276,1.067
			c-0.554-0.086-0.971-0.325-1.254-0.718c-0.278-0.396-0.376-0.874-0.286-1.441c0.069-0.447,0.245-0.942,0.53-1.49l1.178,0.186
			l-0.074,0.47c-0.7-0.107-1.097,0.138-1.19,0.737c-0.093,0.591,0.199,0.94,0.873,1.045c0.391,0.06,0.795-0.144,1.219-0.605
			l0.312-0.344c0.773-0.854,1.547-1.219,2.322-1.1c0.602,0.094,1.054,0.361,1.353,0.802c0.3,0.439,0.399,0.982,0.298,1.629
			C92.514,56.735,92.347,57.262,92.092,57.845z"/>
	</g>
</g>
</svg>
