<?xml version="1.0" encoding="utf-8"?>
<!-- Generator: Adobe Illustrator 16.0.0, SVG Export Plug-In . SVG Version: 6.00 Build 0)  -->
<!DOCTYPE svg PUBLIC "-//W3C//DTD SVG 1.1//EN" "http://www.w3.org/Graphics/SVG/1.1/DTD/svg11.dtd">
<svg version="1.1" id="Layer_1" xmlns:sketch="http://www.bohemiancoding.com/sketch/ns"
	 xmlns="http://www.w3.org/2000/svg" xmlns:xlink="http://www.w3.org/1999/xlink" x="0px" y="0px" width="60px" height="72px"
	 viewBox="0 0 60 72" enable-background="new 0 0 60 72" xml:space="preserve">
<path id="Shape" fill="none" stroke="#005495" stroke-width="2" d="M13.5,49.4v-35c0-4.14,3.357-7.5,7.5-7.5h30 M22.25,19.401H36
	 M22.25,26.901H36 M22.25,34.401H36 M22.25,41.9H36 M38.5,64.4h-30c-4.143,0-7.5-3.357-7.5-7.5c0-4.141,3.357-7.5,7.5-7.5h30
	c-4.143,0-7.5,3.359-7.5,7.5C31,61.043,34.357,64.4,38.5,64.4c4.141,0,7.5-3.357,7.5-7.5v-43.75c0-3.453,2.795-6.25,6.25-6.25
	c3.45,0,6.25,2.797,6.25,7.5H46"/>
</svg>
