<?xml version="1.0" encoding="utf-8"?>
<!-- Generator: Adobe Illustrator 16.0.0, SVG Export Plug-In . SVG Version: 6.00 Build 0)  -->
<!DOCTYPE svg PUBLIC "-//W3C//DTD SVG 1.1//EN" "http://www.w3.org/Graphics/SVG/1.1/DTD/svg11.dtd">
<svg version="1.1" id="Layer_1" xmlns:sketch="http://www.bohemiancoding.com/sketch/ns"
	 xmlns="http://www.w3.org/2000/svg" xmlns:xlink="http://www.w3.org/1999/xlink" x="0px" y="0px" width="80px" height="72px"
	 viewBox="0 0 80 72" enable-background="new 0 0 80 72" xml:space="preserve">
<g>
	<path id="Stroke-433" fill="none" stroke="#005495" stroke-width="2" stroke-linecap="round" stroke-linejoin="round" d="
		M68.403,47.703H40H11.597V14.266h56.807V47.703L68.403,47.703z"/>
	<path id="Stroke-434" fill="none" stroke="#005495" stroke-width="2" stroke-linecap="round" stroke-linejoin="round" d="
		M4.914,54.391V12.594c0-2.769,2.246-5.016,5.013-5.016h60.148c2.767,0,5.012,2.247,5.012,5.016v41.797"/>
	<path id="Stroke-435" fill="none" stroke="#005495" stroke-width="2" stroke-linecap="round" stroke-linejoin="round" d="
		M48.354,54.391v3.344H31.646v-3.344H1.572v6.688c0,1.85,1.497,3.344,3.341,3.344h70.172c1.848,0,3.342-1.494,3.342-3.344v-6.688
		H48.354L48.354,54.391z"/>
	<path id="Shape" fill="#005495" d="M48.766,23c-1.938,0-3.754,0.727-5.117,2.047l-3.103,3.002l1.003,0.98l3.103-3.011
		c1.097-1.059,2.554-1.646,4.106-1.646c1.551,0,3.008,0.587,4.105,1.646c2.262,2.196,2.262,5.767,0,7.954
		c-1.098,1.059-2.555,1.645-4.105,1.645c-1.553,0-3.01-0.586-4.106-1.645l-9.223-8.926C34.057,23.727,32.24,23,30.312,23
		c-1.937,0-3.754,0.727-5.117,2.047c-2.82,2.73-2.82,7.167,0,9.896c1.363,1.322,3.18,2.048,5.117,2.048
		c1.937,0,3.755-0.726,5.117-2.048l3.095-3.001l-1.004-0.972l-3.103,3.002c-1.097,1.059-2.554,1.645-4.105,1.645
		c-1.552,0-3.009-0.586-4.106-1.645c-2.263-2.196-2.263-5.767,0-7.954c1.097-1.059,2.554-1.646,4.106-1.646
		c1.551,0,3.009,0.587,4.105,1.646l9.224,8.925c1.371,1.322,3.188,2.048,5.117,2.048c1.937,0,3.754-0.726,5.117-2.048
		c2.828-2.721,2.828-7.166,0.008-9.896C52.52,23.727,50.703,23,48.766,23z"/>
</g>
</svg>
